<?xml version="1.0" encoding="utf-8"?>
<!-- Generator: Adobe Illustrator 16.0.0, SVG Export Plug-In . SVG Version: 6.00 Build 0)  -->
<!DOCTYPE svg PUBLIC "-//W3C//DTD SVG 1.0//EN" "http://www.w3.org/TR/2001/REC-SVG-20010904/DTD/svg10.dtd">
<svg version="1.0" id="Layer_1" xmlns="http://www.w3.org/2000/svg" xmlns:xlink="http://www.w3.org/1999/xlink" x="0px" y="0px"
	 width="64px" height="64px" viewBox="0 0 64 64" enable-background="new 0 0 64 64" xml:space="preserve">
<g>
	<path fill="#ffffff" d="M64,10c0-4.418-3.582-8-8-8c-0.617,0-1.213,0.086-1.791,0.219C52.5,0.852,50.359,0,48,0
		c-1.953,0-3.764,0.582-5.303,1.551C41.375,0.586,39.762,0,38,0c-2.43,0-4.582,1.107-6.049,2.816C30.738,2.295,29.404,2,28,2
		c-0.824,0-1.611,0.129-2.377,0.316C24.178,0.887,22.193,0,20,0c-4.418,0-8,3.582-8,8c0,2.955,1.613,5.512,4,6.889V16H4
		c-2.211,0-4,1.789-4,4v24c0,2.211,1.789,4,4,4h12v12c0,2.211,1.789,4,4,4h36c2.211,0,4-1.789,4-4V16.891
		C62.381,15.504,64,12.953,64,10z M16,44H6c-1.105,0-2-0.895-2-2V22c0-1.105,0.895-2,2-2h10V44z M56,58c0,1.105-0.895,2-2,2H22
		c-1.105,0-2-0.895-2-2V17.961C21.822,20.404,24.717,22,28,22c1.953,0,3.764-0.582,5.303-1.551C34.625,21.414,36.238,22,38,22
		c2.43,0,4.582-1.107,6.049-2.816C45.262,19.705,46.596,20,48,20c2.359,0,4.5-0.852,6.209-2.219C54.787,17.914,55.383,18,56,18V58z
		 M57.248,13.781C56.854,13.912,56.439,14,56,14c-1.076,0-2.047-0.43-2.768-1.121c-0.66,1.199-1.697,2.152-2.975,2.674
		C49.561,15.836,48.801,16,48,16c-0.764,0-1.488-0.156-2.16-0.418c-0.949-0.367-1.766-0.973-2.41-1.738
		c-0.469,0.438-0.996,0.803-1.559,1.117c-0.184,0.742-0.568,1.402-1.102,1.916C40.049,17.57,39.076,18,38,18
		c-0.617,0-1.193-0.15-1.715-0.4c-1.066-0.506-1.865-1.469-2.156-2.639c-0.242-0.137-0.488-0.262-0.713-0.418
		c-0.562,1.195-1.508,2.162-2.68,2.77C29.912,17.736,28.992,18,28,18c-2.055,0-3.865-1.035-4.945-2.609
		C22.391,14.426,22,13.262,22,12c0-0.201,0.039-0.391,0.059-0.586C21.455,11.777,20.756,12,20,12c-0.711,0-1.369-0.201-1.947-0.527
		C16.834,10.789,16,9.5,16,8c0-2.209,1.791-4,4-4c0.58,0,1.129,0.129,1.627,0.352c1.275,0.57,2.182,1.791,2.332,3.242
		c1.004-0.922,2.314-1.5,3.768-1.566C27.818,6.023,27.906,6,28,6c0.764,0,1.488,0.156,2.16,0.418
		c0.949,0.367,1.766,0.973,2.41,1.738c0.469-0.438,0.996-0.803,1.559-1.117c0.184-0.742,0.568-1.402,1.102-1.916
		C35.951,4.43,36.924,4,38,4c0.617,0,1.193,0.15,1.715,0.4c1.066,0.51,1.865,1.469,2.156,2.639c0.242,0.137,0.488,0.262,0.713,0.418
		c0.562-1.195,1.508-2.162,2.68-2.77C46.088,4.264,47.008,4,48,4c0.801,0,1.561,0.164,2.258,0.447
		c1.277,0.521,2.314,1.475,2.975,2.674C53.953,6.43,54.924,6,56,6c0.439,0,0.854,0.088,1.248,0.219C58.842,6.746,60,8.23,60,10
		S58.842,13.254,57.248,13.781z"/>
	<path fill="#ffffff" d="M32,26c-1.105,0-2,0.895-2,2v22c0,1.105,0.895,2,2,2s2-0.895,2-2V28C34,26.895,33.105,26,32,26z"/>
	<path fill="#ffffff" d="M44,26c-1.105,0-2,0.895-2,2v22c0,1.105,0.895,2,2,2s2-0.895,2-2V28C46,26.895,45.105,26,44,26z"/>
</g>
</svg>
