<?xml version="1.0" encoding="utf-8"?>
<!-- Generator: Adobe Illustrator 16.2.1, SVG Export Plug-In . SVG Version: 6.00 Build 0)  -->
<!DOCTYPE svg PUBLIC "-//W3C//DTD SVG 1.1//EN" "http://www.w3.org/Graphics/SVG/1.1/DTD/svg11.dtd">
<svg version="1.1" id="Слой_1" xmlns="http://www.w3.org/2000/svg" xmlns:xlink="http://www.w3.org/1999/xlink" x="0px" y="0px"
	 width="16px" height="32px" viewBox="0 0 16 32" enable-background="new 0 0 16 32" xml:space="preserve">
<path fill="#DEDEDE" d="M3,5h10v22H3V5z"/>
<g>
	<path fill="#F8F8F8" d="M6,9c-0.552,0-1,0.447-1,1v12c0,0.553,0.448,1,1,1c0.553,0,1-0.447,1-1V10C7,9.447,6.553,9,6,9z M10,9
		c-0.552,0-1,0.447-1,1v12c0,0.553,0.448,1,1,1c0.553,0,1-0.447,1-1V10C11,9.447,10.553,9,10,9z"/>
</g>
<g>
	<path fill="#CECECE" d="M3,5v1h10V5H3z M3,27h10v-1H3V27z"/>
</g>
<g>
	<path fill="#BDBDBD" d="M3,3C1.896,3,1,3.896,1,5s0.896,2,2,2s2-0.896,2-2S4.104,3,3,3z M13,7c1.104,0,2-0.896,2-2s-0.896-2-2-2
		s-2,0.896-2,2S11.896,7,13,7z M3,25c-1.104,0-2,0.896-2,2s0.896,2,2,2s2-0.896,2-2S4.104,25,3,25z M13,25c-1.104,0-2,0.896-2,2
		s0.896,2,2,2s2-0.896,2-2S14.104,25,13,25z"/>
</g>
<g>
	<path fill="#E4E7E7" d="M14,0H2C0.896,0,0,0.896,0,2v2c0,0.471,0.459,1,1,1h14c0.495,0,1-0.478,1-1V2C16,0.896,15.104,0,14,0z
		 M15,27H1c-0.541,0-1,0.529-1,1v2c0,1.104,0.896,2,2,2h12c1.104,0,2-0.896,2-2v-2C16,27.479,15.495,27,15,27z"/>
</g>
</svg>
