<svg xmlns="http://www.w3.org/2000/svg" viewBox="0 0 269.72 282.9"><defs><style>.cls-1,.cls-3{fill:#fc6;}.cls-10,.cls-2,.cls-9{fill:#231f20;}.cls-10,.cls-3,.cls-4,.cls-5,.cls-6,.cls-7,.cls-8{stroke:#231f20;stroke-miterlimit:10;}.cls-4{fill:#fff;}.cls-5{fill:none;}.cls-6{fill:#be1e2d;}.cls-7{fill:#2e3192;}.cls-8{fill:#fdef44;}.cls-10,.cls-8{stroke-width:0.25px;}.cls-9{font-size:6.36px;font-family:MyriadPro-Regular, Myriad Pro;}</style></defs><title>Asset 1</title><g id="Layer_2" data-name="Layer 2"><g id="person"><path class="cls-1" d="M77.51,204c-7.31,7.3-11.29,17.2-15.09,26.8-2.07,5.26-4.18,10.7-3.94,16.34a12.32,12.32,0,0,0,1.39,5.54c1.34,2.36,3.68,4,5.93,5.47l17.06,11.42c.46.31,1,.71,1,1.26a1.7,1.7,0,0,1-.78,1.2,19.85,19.85,0,0,0-4.52,4.39c-1.12,1.78-1.4,4.31,0,5.89a107,107,0,0,0,25.86-19.95,1.65,1.65,0,0,0,.61-1.16c0-.5-.5-.84-.91-1.1-7.56-4.78-17.52-6.5-22.6-13.85-4-5.85-3.68-13.79-1.28-20.47s6.59-12.55,10-18.76c1.26-2.29,2.47-4.83,2.1-7.42a2.56,2.56,0,0,0-.68-1.56A2.94,2.94,0,0,0,90,197.4a14.14,14.14,0,0,0-12.76,5.87"/><path class="cls-2" d="M77.07,203.53c-6,6.24-9.83,13.83-13.11,21.76-3.07,7.41-7.78,16.58-5.71,24.85,1.9,7.58,12.22,11.85,18.09,15.79,2,1.33,6.82,3.66,5.66,6.13-.69,1.47-3.09,2.45-4,4a6,6,0,0,0,0,6.53.64.64,0,0,0,.86.22A111.91,111.91,0,0,0,96,271a100.9,100.9,0,0,0,7.6-7c.44-.46,2.15-1.82,2-2.85-.47-3-7.35-4.85-9.53-5.82-6.47-2.89-13.51-6.07-16-13.31-2.61-7.58,0-15.65,3.57-22.43,2.88-5.49,8.91-11.92,9.33-18.33.64-9.6-13.35-2.13-16.23,1.54-.49.63.39,1.52.88.89a15,15,0,0,1,4.17-3.85A15.6,15.6,0,0,1,85,198.49c3.15-1,3.18-.92,5,1.73s1.62,2.51.44,5.05c-.35.74-.78,1.46-1.18,2.18-1,1.81-2.09,3.58-3.15,5.36-3.48,5.85-7,11.9-8,18.73-1.78,12.09,5,19.3,15.38,24,2.72,1.24,6,2.2,8.45,4s2,2.44.2,4.21c-1.43,1.43-2.89,2.81-4.39,4.16a106.12,106.12,0,0,1-10,7.92q-2.13,1.49-4.32,2.86A11.48,11.48,0,0,1,81.21,280l-1.49.87-.64-4.2c.72-3.42,7.78-4,4.16-7.65-2.28-2.28-5.9-4-8.59-5.76-3.68-2.46-7.75-4.72-11.1-7.6-8.49-7.3-2.76-19.25.69-27.79S71.53,211.11,78,204.41c.55-.58-.33-1.46-.89-.88Z"/><path class="cls-1" d="M190,196.73c10.09-2.21,20.57-.21,30.71,1.79,5.54,1.09,11.26,2.26,15.88,5.51a12.25,12.25,0,0,1,3.9,4.17c1.27,2.4,1.35,5.23,1.4,7.94l.39,20.53a1.78,1.78,0,0,0,.53,1.51,1.74,1.74,0,0,0,1.43,0c2-.63,4-1.45,6.13-1.43s4.39,1.16,5,3.19a106.88,106.88,0,0,1-30.75,11,1.24,1.24,0,0,1-1.75-1.48c.07-8.93,4-18.25.56-26.49-2.74-6.55-9.6-10.55-16.52-12.14s-14.12-1.24-21.21-1.71c-2.61-.17-5.4-.53-7.38-2.24a2.63,2.63,0,0,1-.94-1.41,2.88,2.88,0,0,1,.42-1.77,14.11,14.11,0,0,1,11.82-7.56"/><path class="cls-2" d="M190.19,197.33c10.73-2.08,21.49-.07,32,2.13,4.86,1,10,2.14,14.06,5.11,5.81,4.22,5,10.84,5.1,17.17.09,4.6-.8,10.49.28,14.93.32,1.3.29,1.9,1.69,2.26.71.18,2.07-.52,2.57-.66a15.39,15.39,0,0,1,4.46-.91q5.56,2.55,1.42,3.7c-1.67,1.6-6.17,2.85-8.17,3.64-2.26.89-4.55,1.71-6.86,2.44s-4.65,1.4-7,2c-1.18.29-2.37.56-3.55.8q-3.61.72-2.69-2.19c-.76-2.08.71-6,1-8.29.25-1.74.54-3.47.69-5.22.63-7.06-.83-13.65-6.41-18.4-5.3-4.5-12.2-6.12-19-6.72-4.73-.42-9.48-.26-14.21-.66a14.41,14.41,0,0,1-5.78-1.29q-2.55-4.08.93-6.6a14,14,0,0,1,8.77-3.85c.8-.07.8-1.32,0-1.25-4.31.4-17.9,7.25-11,12.34,4.51,3.33,12.48,2.06,17.72,2.33,7.56.39,15.62,1.5,21.61,6.59,6.94,5.87,6.61,14.16,5.4,22.39-.33,2.26-2.74,10.56-.52,12.11,2.6,1.8,9.92-1.54,12.53-2.32a112.89,112.89,0,0,0,20.3-8.43.65.65,0,0,0,.22-.86,5.78,5.78,0,0,0-4.87-3.42c-2-.22-3.53.59-5.42.89-3.18.49-2.69-1.25-2.75-4.13-.1-5.29-.19-10.57-.3-15.86-.08-3.62-.09-7.41-2.31-10.47-4.77-6.56-14.73-7.81-22-9.22-9.41-1.8-18.83-3.11-28.34-1.27-.79.16-.46,1.36.33,1.21Z"/><path class="cls-1" d="M68.1,98.52A78.35,78.35,0,0,0,28.74,86.83a11,11,0,0,0-5.47.87c-2.91,1.53-4,5.06-4.83,8.26a365.47,365.47,0,0,0-8.14,43.31A10.43,10.43,0,0,1,8.94,144a16,16,0,0,1-3.24,2.9,14.43,14.43,0,0,0-5,13.24,29.4,29.4,0,0,0,11.61-11L8.06,162a34.64,34.64,0,0,0,10-11.29l-.15,12.86a40.9,40.9,0,0,1,2.88-9.36L29,163.93a34.53,34.53,0,0,0-.84-16.19,48.49,48.49,0,0,0,16.61-2.91,5.46,5.46,0,0,0,3.1-2.12c.85-1.54,0-3.59-1.37-4.64a9,9,0,0,0-5-1.42,32.87,32.87,0,0,0-16.08,3.28,55,55,0,0,1,5-33.36,5,5,0,0,1,1.46-2,5,5,0,0,1,2.46-.68,69.25,69.25,0,0,1,29.42,3.76,2.85,2.85,0,0,0,1.56.25,2.63,2.63,0,0,0,1.54-1.46A17.34,17.34,0,0,0,69,98.33"/><path class="cls-2" d="M68.41,98a80.7,80.7,0,0,0-31-11.09c-4.19-.57-9.63-1.66-13.69,0-3.24,1.28-4.6,4.43-5.55,7.57-3.62,12-5.65,24.74-7.47,37.09-.43,2.94-.45,6.41-1.27,9.24-1.2,4.1-4,4.86-6.31,7.85a15.45,15.45,0,0,0-3,11.5.63.63,0,0,0,.94.54,32.11,32.11,0,0,0,11.84-11.25l-1.14-.48-4.3,12.89c-.16.48.48,1,.92.7A38.29,38.29,0,0,0,18.61,151l-1.16-.31-.16,12.86c0,.69,1.09.87,1.23.17.4-2,1-7.69,3-7.69,1.24,0,6,7.22,7,8.37a.62.62,0,0,0,1-.27A37.71,37.71,0,0,0,30,154c-.11-1.07-1.15-4-.78-4.65.92-1.63,2.93-1.1,4.56-1.28,3.76-.43,12.3-1.05,14.52-4.9,1.47-2.55-.41-5.24-2.77-6.34-4.71-2.19-11.82-.63-16.46.95-2.17.73-1.75,1.32-3-.14s-.78-4.52-.79-6.22a54,54,0,0,1,1.19-11.75,41.64,41.64,0,0,1,3.69-11.22c1.59-2.89,2.8-3.8,6-4a62,62,0,0,1,6.54-.09,68.81,68.81,0,0,1,13.7,1.83c2.3.55,6.64,3.07,8.88,2.41,3.54-1,4.17-7.32,4.36-10.23.06-.8-1.2-.8-1.25,0-.17,2.57-.48,7.3-3.3,8.28-2.14.75-4.38-.62-6.55-1.2a70.24,70.24,0,0,0-9.33-1.83A71.13,71.13,0,0,0,37,103.11c-1.75.09-4.18-.06-5.7,1s-2.33,3.65-3,5.36A54.86,54.86,0,0,0,24.9,121a57.76,57.76,0,0,0-.14,19.1c.06.43.59.52.92.37a34.41,34.41,0,0,1,9.23-2.84c1.85-.28,7.47-1.29,9,0l.64,6.63-1.78.61a15.87,15.87,0,0,1-3.63,1,51.9,51.9,0,0,1-11,1.27.64.64,0,0,0-.61.79c.74,2.75,3.12,10.8,1,13.3q-.27,2.1-1.46-.51l-1.74-2.1-4.08-4.88c-.34-.41-.88-.11-1,.27a48,48,0,0,0-2.88,9.36l1.22.17.16-12.86a.63.63,0,0,0-1.17-.32,36.82,36.82,0,0,1-9.79,11.07l.92.71L13,149.23c.23-.69-.78-1.07-1.15-.48-1.07,1.72-8,11.38-10.61,9.87-.76-.43.7-4.91.93-5.53a12.76,12.76,0,0,1,2.92-4.8c1.37-1.4,3.25-2.33,4.38-4,2.4-3.5,2.06-9.48,2.65-13.44q1.35-9,3.15-17.94c1.14-5.63,2.33-11.28,3.81-16.83,1-3.82,2.72-7.64,7-8.5,2.53-.51,5.34-.11,7.89.12A79.27,79.27,0,0,1,67.78,99.06.63.63,0,0,0,68.41,98Z"/><path class="cls-1" d="M201.62,98.52A78.32,78.32,0,0,1,241,86.83a11,11,0,0,1,5.46.87c2.92,1.53,4,5.06,4.84,8.26a365.47,365.47,0,0,1,8.14,43.31,10.43,10.43,0,0,0,1.36,4.68,16,16,0,0,0,3.24,2.9,14.48,14.48,0,0,1,5,13.24,29.49,29.49,0,0,1-11.62-11l4.3,12.89a34.64,34.64,0,0,1-10-11.29l.15,12.86a40.9,40.9,0,0,0-2.88-9.36l-8.16,9.77a34.66,34.66,0,0,1,.85-16.19A48.49,48.49,0,0,1,225,144.83a5.46,5.46,0,0,1-3.1-2.12c-.86-1.54-.05-3.59,1.36-4.64a9,9,0,0,1,5-1.42,32.89,32.89,0,0,1,16.09,3.28,55.06,55.06,0,0,0-5-33.36,5,5,0,0,0-1.46-2,5.07,5.07,0,0,0-2.46-.68A69.29,69.29,0,0,0,206,107.68a2.83,2.83,0,0,1-1.56.25,2.69,2.69,0,0,1-1.54-1.46,17.45,17.45,0,0,1-2.19-8.14"/><path class="cls-2" d="M201.93,99.06a79.45,79.45,0,0,1,33-11.23,47.76,47.76,0,0,1,7.46-.38c4.78.26,7,3.86,8.1,8,1.6,5.76,2.81,11.66,4,17.52q1.71,8.46,3,17c.63,4.14.24,10.64,2.75,14.32,1.13,1.67,3.05,2.61,4.42,4,1.57,1.63,5.28,7.36,3.85,9.6-1.15,1.79-3.39-.88-5.12-2.45a31.8,31.8,0,0,1-5.49-6.69c-.36-.58-1.37-.22-1.14.48l4.3,12.89.91-.71a36.79,36.79,0,0,1-9.78-11.07.63.63,0,0,0-1.17.32l.15,12.86,1.23-.17a48.92,48.92,0,0,0-2.88-9.36c-.16-.38-.71-.68-1-.27l-3.5,4.19-2.33,2.79c-.78,1.74-1.27,1.91-1.45.51-2.08-2.48.35-10.85,1-13.3a.63.63,0,0,0-.6-.79A52,52,0,0,1,231.5,146c-1.23-.26-2.44-.57-3.65-.93-.6-.17-1.2-.36-1.79-.58-2.73-.6-2.81-2.92-.26-6.93,1.8-.94,5.47-.41,7.44-.21a34.13,34.13,0,0,1,10.8,3.08c.32.15.85.06.92-.37a58,58,0,0,0-.14-19.1,55.86,55.86,0,0,0-3.08-10.69c-.8-2-1.56-4.78-3.37-6.15-1.27-1-3.23-.9-4.76-1a69.54,69.54,0,0,0-13.06.42,70.41,70.41,0,0,0-9.32,1.83c-1.43.38-3.86,1.76-5.35,1.66-4-.24-4.31-5.79-4.51-8.74-.05-.79-1.3-.8-1.25,0,.2,2.94.83,9.2,4.36,10.23,2.08.6,6.65-1.87,8.89-2.41a68.68,68.68,0,0,1,12.77-1.8,64.65,64.65,0,0,1,6.53,0c3.37.18,4.63.3,6.55,3.3,2.12,3.31,3.25,8.13,4.06,12a56,56,0,0,1,1.19,11.75,20.49,20.49,0,0,1-.28,5.13c-.91,3.2-1.2,2-3.5,1.23-4.64-1.58-11.76-3.14-16.46-.95-2.27,1.06-4.28,3.77-2.82,6.28,2.25,3.89,10.78,4.53,14.56,5,1.57.17,3.7-.28,4.57,1.28,0,.08-.68,3.62-.69,3.74a38.12,38.12,0,0,0,.31,11,.63.63,0,0,0,1.05.27l3.49-4.18c.35-.42,3-4.14,3.5-4.19,1.8-.18,2.66,6,3,7.69a.63.63,0,0,0,1.23-.17l-.15-12.86-1.16.31a38.38,38.38,0,0,0,10.23,11.52c.44.34,1.08-.21.92-.7L258,148.9l-1.14.48a32.19,32.19,0,0,0,11.84,11.25.63.63,0,0,0,.94-.54,15.57,15.57,0,0,0-3-11.44c-1.75-2.28-4.08-3.37-5.39-6-1.55-3.11-1.6-6.77-2.1-10.21-1.84-12.68-3.93-25.74-7.61-38-.85-2.87-2.08-5.88-4.9-7.32-4-2-10-.78-14.25-.21A80.64,80.64,0,0,0,201.3,98a.63.63,0,0,0,.63,1.08Z"/><circle class="cls-3" cx="133.83" cy="147.34" r="82.52"/><circle class="cls-3" cx="133.83" cy="52.08" r="51.58"/><circle class="cls-4" cx="114.64" cy="33.25" r="11.3"/><circle class="cls-4" cx="148.33" cy="33.25" r="11.3"/><line class="cls-5" x1="103.35" y1="70.63" x2="165.3" y2="70.63"/><path class="cls-6" d="M133.83,89.34a18.7,18.7,0,0,0,18.7-18.71H115.12A18.71,18.71,0,0,0,133.83,89.34Z"/><line class="cls-5" x1="134.33" y1="70.63" x2="134.33" y2="78.56"/><circle class="cls-7" cx="117.66" cy="38.15" r="3.02"/><circle class="cls-7" cx="146.12" cy="38.15" r="3.02"/><path class="cls-8" d="M58.46,181.41c14.69,28.89,42.89,48.44,75.27,48.44S194.31,210.3,209,181.41Z"/><text class="cls-9" transform="translate(168.66 190.56) rotate(-0.25)">Badebuksa</text><circle class="cls-10" cx="95.35" cy="117.29" r="3.4"/><circle class="cls-10" cx="168.67" cy="117.29" r="3.4"/></g></g></svg>