<?xml version="1.0" encoding="utf-8"?>
<!-- Generator: Adobe Illustrator 23.0.1, SVG Export Plug-In . SVG Version: 6.00 Build 0)  -->
<svg version="1.1" id="Layer_1" xmlns="http://www.w3.org/2000/svg" xmlns:xlink="http://www.w3.org/1999/xlink" x="0px" y="0px"
	 viewBox="0 0 595.28 841.89" style="enable-background:new 0 0 595.28 841.89;" xml:space="preserve">
<style type="text/css">
	.st0{fill:#020202;stroke:#000000;stroke-miterlimit:10;}
	.st1{fill:#ED2024;stroke:#000000;stroke-miterlimit:10;}
	.st2{stroke:#000000;stroke-miterlimit:10;}
</style>
<circle class="st0" cx="187.03" cy="186.81" r="16.72"/>
<circle class="st0" cx="312.04" cy="170.09" r="16.72"/>
<path class="st1" d="M576.8,436.51l-101.21,6.94c39.52-45.59,63.45-105.09,63.45-170.17c0-143.53-116.35-259.9-259.88-259.9
	s-259.9,116.37-259.9,259.9c0,103.86,60.94,193.5,149,235.1L64,547.28l155.19,97.28l7.85,182.98L367.5,710.02l176.47,49.07
	l-68.39-169.9L576.8,436.51z M261.55,361.19c-41.16,0-74.53-30.37-74.53-67.84c0-37.47,33.37-67.84,74.53-67.84
	s74.53,30.37,74.53,67.84C336.08,330.81,302.71,361.19,261.55,361.19z"/>
<circle class="st2" cx="191.98" cy="158.96" r="15.15"/>
<circle class="st2" cx="282.88" cy="147.79" r="15.15"/>
</svg>
