<?xml version="1.0" encoding="utf-8"?>
<!-- Generator: Adobe Illustrator 16.2.1, SVG Export Plug-In . SVG Version: 6.00 Build 0)  -->
<!DOCTYPE svg PUBLIC "-//W3C//DTD SVG 1.1//EN" "http://www.w3.org/Graphics/SVG/1.1/DTD/svg11.dtd">
<svg version="1.1" id="Слой_1" xmlns="http://www.w3.org/2000/svg" xmlns:xlink="http://www.w3.org/1999/xlink" x="0px" y="0px"
	 width="32px" height="32px" viewBox="0 0 32 32" enable-background="new 0 0 32 32" xml:space="preserve">
<path fill="#324D5B" d="M16,32C7.163,32,0,24.836,0,16C0,7.163,7.163,0,16,0c8.836,0,16,7.163,16,16C32,24.836,24.836,32,16,32z"/>
<g>
	<circle fill="#FFFFFF" cx="16.483" cy="9.516" r="2.5"/>
	<path fill="#FFFFFF" d="M16.496,16.01c-0.11,0-0.217,0.012-0.326,0.017v-0.05C12.734,15.806,10,12.978,10,9.504
		s2.734-6.301,6.17-6.472V3.025c-0.057,0-0.111-0.008-0.168-0.008c-7.175,0-12.991,5.816-12.991,12.991s5.816,12.993,12.991,12.993
		c0.057,0,0.111-0.008,0.168-0.009v-0.014c0.046,0.003,0.092,0.004,0.138,0.007c0.514-0.012,1.019-0.057,1.516-0.127
		c2.952-0.612,5.171-3.227,5.171-6.357C22.994,18.916,20.085,16.01,16.496,16.01z M16.497,25c-1.382,0-2.501-1.12-2.501-2.502
		c0-1.381,1.119-2.501,2.501-2.501s2.501,1.12,2.501,2.501C18.998,23.88,17.879,25,16.497,25z"/>
</g>
</svg>
