<?xml version="1.0" encoding="utf-8"?>
<!-- Generator: Adobe Illustrator 16.2.1, SVG Export Plug-In . SVG Version: 6.00 Build 0)  -->
<!DOCTYPE svg PUBLIC "-//W3C//DTD SVG 1.1//EN" "http://www.w3.org/Graphics/SVG/1.1/DTD/svg11.dtd">
<svg version="1.1" id="Слой_1" xmlns="http://www.w3.org/2000/svg" xmlns:xlink="http://www.w3.org/1999/xlink" x="0px" y="0px"
	 width="32px" height="32px" viewBox="0 0 32 32" enable-background="new 0 0 32 32" xml:space="preserve">
<path fill="#2B414D" d="M9,2c0,0,3.508-2,7.012-2C19.508,0,23,2,23,2v2c0,0-3.492-2-6.988-2C12.508,2,9,4,9,4V2z"/>
<g>
	<g>
		<path fill="#475F6C" d="M24,2h-2c-0.553,0-1,0.447-1,1v1c0,0.553,0.447,1,1,1h2c0.553,0,1-0.447,1-1V3C25,2.447,24.553,2,24,2z
			 M10,2H8C7.448,2,7,2.447,7,3v1c0,0.553,0.447,1,1,1h2c0.553,0,1-0.447,1-1V3C11,2.447,10.553,2,10,2z"/>
	</g>
</g>
<path fill="#2B414D" d="M3,4h26c1.656,0,3,1.344,3,3v22c0,1.656-1.344,3-3,3H3c-1.656,0-3-1.344-3-3V7C0,5.344,1.344,4,3,4z"/>
<path fill="#475F6C" d="M3,15h26c0.553,0,1,0.447,1,1v13c0,0.553-0.447,1-1,1H3c-0.553,0-1-0.447-1-1V16C2,15.447,2.448,15,3,15z"/>
<g>
	<g>
		<path fill="#627986" d="M9.5,17C6.463,17,4,19.463,4,22.5S6.463,28,9.5,28s5.5-2.463,5.5-5.5S12.537,17,9.5,17z M9.5,24
			C8.672,24,8,23.328,8,22.5S8.672,21,9.5,21s1.5,0.672,1.5,1.5S10.328,24,9.5,24z M22.5,17c-3.037,0-5.5,2.463-5.5,5.5
			s2.463,5.5,5.5,5.5s5.5-2.463,5.5-5.5S25.537,17,22.5,17z M22.5,24c-0.828,0-1.5-0.672-1.5-1.5s0.672-1.5,1.5-1.5
			s1.5,0.672,1.5,1.5S23.328,24,22.5,24z"/>
	</g>
</g>
<path fill="#F4B459" d="M3,6h26c0.553,0,1,0.447,1,1v5c0,0.553-0.447,1-1,1H3c-0.553,0-1-0.447-1-1V7C2,6.447,2.448,6,3,6z"/>
<g>
	<g>
		<path fill="#2B414D" d="M6.5,8C5.672,8,5,8.672,5,9.5S5.672,11,6.5,11S8,10.328,8,9.5S7.328,8,6.5,8z M11.5,8
			C10.672,8,10,8.672,10,9.5s0.672,1.5,1.5,1.5S13,10.328,13,9.5S12.328,8,11.5,8z M16.5,8C15.672,8,15,8.672,15,9.5
			s0.672,1.5,1.5,1.5S18,10.328,18,9.5S17.328,8,16.5,8z"/>
	</g>
</g>
<path fill="#3C9984" d="M25.5,8C26.328,8,27,8.672,27,9.5S26.328,11,25.5,11S24,10.328,24,9.5S24.672,8,25.5,8z"/>
</svg>
