<?xml version="1.0" encoding="utf-8"?>
<!-- Generator: Adobe Illustrator 16.2.1, SVG Export Plug-In . SVG Version: 6.00 Build 0)  -->
<!DOCTYPE svg PUBLIC "-//W3C//DTD SVG 1.1//EN" "http://www.w3.org/Graphics/SVG/1.1/DTD/svg11.dtd">
<svg version="1.1" id="Слой_1" xmlns="http://www.w3.org/2000/svg" xmlns:xlink="http://www.w3.org/1999/xlink" x="0px" y="0px"
	 width="28.016px" height="32px" viewBox="0 0 28.016 32" enable-background="new 0 0 28.016 32" xml:space="preserve">
<g>
	<g>
		<path fill="#D07C40" d="M14,0C8.477,0,4,5.373,4,12s4.477,12,10,12c5.522,0,10-5.373,10-12S19.523,0,14,0z M14,22
			c-4.418,0-8-4.477-8-10C6,6.477,9.582,2,14,2s8,4.477,8,10C22,17.523,18.418,22,14,22z"/>
	</g>
</g>
<path fill="#D07C40" d="M25,12H14.008H3.016c-1.656,0-3.187,1.354-3,3l2,14c0.271,1.73,1.344,3,3,3h8.992H23c1.655,0,2.729-1.27,3-3
	l2-14C28.187,13.354,26.656,12,25,12z"/>
<path fill="#F4B459" d="M25,12H14.008H3.016c-1.656,0-3.187,1.354-3,3l0.713,4.992C3.844,21.824,8.627,23,14,23
	c5.383,0,10.174-1.182,13.288-3.02L28,15C28.187,13.354,26.656,12,25,12z"/>
<path fill="#BB6F39" d="M0.729,19.992l0.154,1.081C4.001,22.857,8.71,24,14,24c5.3,0,10.017-1.146,13.134-2.938l0.154-1.082
	C24.174,21.818,19.383,23,14,23C8.627,23,3.844,21.824,0.729,19.992z"/>
<path fill="#F8E4AF" d="M14,16c1.104,0,2,0.896,2,2s-0.896,2-2,2c-1.104,0-2-0.896-2-2S12.896,16,14,16z"/>
</svg>
