<?xml version="1.0" encoding="utf-8"?>
<!-- Generator: Adobe Illustrator 16.2.1, SVG Export Plug-In . SVG Version: 6.00 Build 0)  -->
<!DOCTYPE svg PUBLIC "-//W3C//DTD SVG 1.1//EN" "http://www.w3.org/Graphics/SVG/1.1/DTD/svg11.dtd">
<svg version="1.1" id="Слой_1" xmlns="http://www.w3.org/2000/svg" xmlns:xlink="http://www.w3.org/1999/xlink" x="0px" y="0px"
	 width="32px" height="32px" viewBox="0 0 32 32" enable-background="new 0 0 32 32" xml:space="preserve">
<path fill="#5CBCDD" d="M28,10c-3.313,0-6-2.686-6-6c0-1.389,0.477-2.664,1.269-3.681C22.381,0.118,21.457,0,20.5,0
	C14.148,0,9,4.701,9,10.5S14.148,21,20.5,21S32,16.299,32,10.5c0-0.637-0.072-1.258-0.191-1.864C30.772,9.488,29.446,10,28,10z"/>
<g>
	<g>
		<path fill="#FFFFFF" d="M14,7h-0.051C13.974,6.835,14,6.671,14,6.5C14,4.567,12.434,3,10.5,3S7,4.567,7,6.5
			C7,6.671,7.026,6.835,7.051,7H7C5.896,7,5,7.896,5,9s0.896,2,2,2h7c1.104,0,2-0.896,2-2S15.104,7,14,7z"/>
	</g>
	<g>
		<path fill="#FFFFFF" d="M14,7h-0.051C13.974,6.835,14,6.671,14,6.5C14,4.567,12.434,3,10.5,3S7,4.567,7,6.5
			C7,6.671,7.026,6.835,7.051,7H7C5.896,7,5,7.896,5,9s0.896,2,2,2h7c1.104,0,2-0.896,2-2S15.104,7,14,7z"/>
	</g>
</g>
<path fill="#F4B459" d="M28,0c2.209,0,4,1.791,4,4s-1.791,4-4,4s-4-1.791-4-4S25.791,0,28,0z"/>
<path fill="#EFC75E" d="M2,19l19-4.062V32H2V19z"/>
<path fill="#475F6C" d="M0,20.998l0.001-2.934l23-5.124L23,15.936L0,20.998z"/>
<path fill="#475F6C" d="M6,23h3c0.553,0,1,0.447,1,1v8H5v-8C5,23.447,5.447,23,6,23z"/>
<path fill="#26A6D1" d="M14,23h7v6h-7c-0.553,0-1-0.447-1-1v-4C13,23.447,13.447,23,14,23z"/>
<path fill="#5CBCDD" d="M21,23v6h-6L21,23z"/>
</svg>
