<?xml version="1.0" encoding="utf-8"?>
<!-- Generator: Adobe Illustrator 16.2.1, SVG Export Plug-In . SVG Version: 6.00 Build 0)  -->
<!DOCTYPE svg PUBLIC "-//W3C//DTD SVG 1.1//EN" "http://www.w3.org/Graphics/SVG/1.1/DTD/svg11.dtd">
<svg version="1.1" id="Слой_1" xmlns="http://www.w3.org/2000/svg" xmlns:xlink="http://www.w3.org/1999/xlink" x="0px" y="0px"
	 width="22px" height="32px" viewBox="0 0 22 32" enable-background="new 0 0 22 32" xml:space="preserve">
<g>
	<g>
		<path fill="#EFC75E" d="M22,11c0-6.074-4.925-11-11-11C4.925,0,0,4.926,0,11c0,4.662,2.905,8.639,7,10.238V24h8v-2.762
			C19.095,19.639,22,15.662,22,11z"/>
	</g>
	<g>
		<path fill="#EFC75E" d="M22,11c0-6.074-4.925-11-11-11C4.925,0,0,4.926,0,11c0,4.662,2.905,8.639,7,10.238V24h8v-2.762
			C19.095,19.639,22,15.662,22,11z"/>
	</g>
</g>
<path fill="#5B717C" d="M9.065,14.087c0.138,0.005,0.279,0.007,0.426,0.003c0.561-0.015,1.072-0.148,1.51-0.385
	c0.438,0.236,0.95,0.369,1.51,0.385c0.146,0.004,0.287,0.002,0.424-0.003c-0.389,3.188-0.705,7.64-0.724,7.888l0.41,0.023H9.379
	l0.41-0.023C9.772,21.727,9.455,17.275,9.065,14.087z M10.72,11.074c0.045-0.063,0.1-0.106,0.221-0.106
	c0.01,0,0.02,0.001,0.029,0.001l0.033,0.002l0.029-0.002c0.143-0.007,0.201,0.037,0.25,0.105c0.14,0.203,0.146,0.663-0.111,1.118
	c-0.042,0.073-0.098,0.159-0.17,0.247c-0.072-0.088-0.129-0.173-0.171-0.247C10.571,11.737,10.58,11.277,10.72,11.074z
	 M13.252,21.988c0.035-0.508,0.365-5.016,0.748-8.053c0.994-0.256,1.593-0.792,1.843-1.311c0.293-0.607,0.178-1.256-0.311-1.734
	c-0.456-0.449-0.905-0.414-1.133-0.352c-0.733,0.197-1.077,1.105-1.141,1.408c-0.066,0.317-0.133,0.715-0.197,1.166
	c-0.162,0.013-0.336,0.018-0.522,0.012c-0.269-0.006-0.5-0.049-0.698-0.115c0.092-0.114,0.176-0.236,0.25-0.365
	c0.414-0.729,0.44-1.549,0.066-2.09c-0.254-0.368-0.676-0.566-1.155-0.55c-0.485-0.017-0.901,0.182-1.155,0.55
	c-0.375,0.541-0.349,1.361,0.065,2.09c0.074,0.129,0.158,0.251,0.25,0.365c-0.199,0.066-0.431,0.109-0.699,0.115
	c-0.186,0.006-0.36,0.001-0.522-0.012c-0.064-0.451-0.131-0.849-0.196-1.166c-0.063-0.303-0.407-1.211-1.14-1.408
	c-0.229-0.062-0.678-0.098-1.133,0.352c-0.488,0.479-0.604,1.127-0.311,1.734c0.25,0.519,0.848,1.055,1.842,1.311
	c0.383,3.036,0.713,7.543,0.747,8.053 M14.149,12.861c0.043-0.276,0.087-0.522,0.13-0.73c0.05-0.24,0.286-0.626,0.381-0.666
	c0,0,0.041,0.013,0.116,0.087c0.193,0.19,0.234,0.432,0.117,0.678C14.787,12.449,14.545,12.686,14.149,12.861z M7.853,12.861
	c-0.396-0.176-0.639-0.412-0.744-0.631c-0.119-0.246-0.078-0.487,0.117-0.679c0.057-0.055,0.092-0.075,0.096-0.083
	c0.125,0.055,0.352,0.428,0.4,0.662C7.767,12.339,7.81,12.584,7.853,12.861z"/>
<path fill="#D8B355" d="M8,20.238C3.905,18.637,1,14.662,1,10c0-2.806,1.062-5.356,2.793-7.297C1.473,4.72,0,7.685,0,11
	c0,4.662,2.905,8.639,7,10.238v1.787V24h8v-1H8V20.238z"/>
<path fill="#B8BCBE" d="M10.5,27h1c1.381,0,2.5,1.119,2.5,2.5S12.881,32,11.5,32h-1C9.119,32,8,30.881,8,29.5S9.119,27,10.5,27z"/>
<path fill="#CCD0D2" d="M8,22h6c1.104,0,2,0.896,2,2v4c0,1.104-0.896,2-2,2H8c-1.104,0-2-0.896-2-2v-4C6,22.896,6.896,22,8,22z"/>
<g>
	<g>
		<path fill="#E4E7E7" d="M6,28h10v-1H6V28z M6,24v1h10v-1H6z"/>
	</g>
	<g>
		<path fill="#E4E7E7" d="M6,28h10v-1H6V28z M6,24v1h10v-1H6z"/>
	</g>
</g>
</svg>
